<svg width="512" height="512" viewBox="0 0 512 512" fill="none" xmlns="http://www.w3.org/2000/svg">
<g clip-path="url(#clip0_166_8)">
<path d="M130.7 263.801C133.931 242.715 157.992 143.926 238.388 141.068C299.232 138.905 320.153 188.629 338.538 228.117C357.922 269.749 375.153 288.469 396.152 301.648C404.767 307.055 408.105 306.765 407.998 308.596C407.136 323.302 396.69 332.124 390.229 333.548C372.568 337.441 365.461 327.15 356.307 328.682C335.631 332.142 335.846 364.474 313.232 365.988C299.771 366.889 290.079 351.39 276.618 351.39C262.08 351.39 247.542 377.883 230.312 378.964C215.258 379.909 202.851 361.744 191.544 360.041C180.237 358.338 169.468 373.287 158.16 369.232C120.469 355.715 127.469 284.887 130.7 263.801Z" fill="#F5F5F5" stroke="#E0E0E0" stroke-width="10"/>
</g>
<defs>
<clipPath id="clip0_166_8">
<rect width="512" height="512" fill="white"/>
</clipPath>
</defs>
</svg>
